# File created by Blade
# Date/Time:  Tue Jan 27 17:27:44 2015
#---------------------------------------------------------
:version 1.10
:name HOM
:units
  mass 1.0
  length 1.000000
  angle deg
:documentation
     Acclaim Skeleton File
:root
   axis xyz
   order TX TY TZ RX RY RZ
   position 0.000000 0.000000 0.000000
   orientation 0 0 0
:bonedata
   begin
      id 1
      name Spine_dum
      direction 0.000000 1.000000 0.000000
      length 7.539951
      axis 0.0 0.0 0.0 xyz
   end
   begin
      id 2
      name LeftUpLeg_dum
      direction 1.000000 0.000000 0.000000
      length 3.345476
      axis 0.0 0.0 0.0 xyz
   end
   begin
      id 3
      name RightUpLeg_dum
      direction -1.000000 0.000000 0.000000
      length 3.345476
      axis 0.0 0.0 0.0 xyz
   end
   begin
      id 4
      name Spine
      direction 0.000000 1.000000 0.000000
      length 0.000000
      axis 0.0 0.0 0.0 xyz
      dof rx ry rz
   end
   begin
      id 5
      name Spine_dum1
      direction 0.000000 1.000000 0.000000
      length 15.093809
      axis 0.0 0.0 0.0 xyz
   end
   begin
      id 6
      name Spine_dum2
      direction 0.000000 1.000000 0.000000
      length 9.738928
      axis 0.0 0.0 0.0 xyz
   end
   begin
      id 7
      name Spine_dum3
      direction 0.000000 1.000000 0.000000
      length 9.738928
      axis 0.0 0.0 0.0 xyz
   end
   begin
      id 8
      name Head
      direction 0.000000 1.000000 0.000000
      length 4.527550
      axis 0.0 0.0 0.0 xyz
      dof rx ry rz
   end
   begin
      id 9
      name LeftShoulder
      direction 1.000000 0.000000 0.000000
      length 7.084015
      axis 0.0 0.0 -90.0 xyz
      dof rx ry rz
   end
   begin
      id 10
      name LeftArm
      direction 1.000000 0.000000 0.000000
      length 10.259319
      axis 0.0 0.0 -90.0 xyz
      dof rx ry rz
   end
   begin
      id 11
      name LeftForeArm
      direction 1.000000 0.000000 0.000000
      length 9.896984
      axis 0.0 0.0 -90.0 xyz
      dof ry rz rx
   end
   begin
      id 12
      name LeftHand
      direction 0.000000 0.000000 0.000000
      length 0.000000
      axis 0.0 0.0 -90.0 xyz
      dof rx ry rz
   end
   begin
      id 13
      name LeftHand_dum1
      direction 0.000000 0.000000 0.000000
      length 0.000000
      axis 0.0 0.0 -90.0 xyz
   end
   begin
      id 14
      name LeftHand_dum2
      direction 1.000000 0.000000 0.000000
      length 3.937000
      axis 0.0 0.0 -90.0 xyz
   end
   begin
      id 15
      name LeftHandThumb1
      direction 0.000000 0.000000 1.000000
      length 3.937000
      axis 0.0 0.0 -90.0 xyz
      dof rx rz ry
   end
   begin
      id 16
      name RightShoulder
      direction -1.000000 0.000000 0.000000
      length 7.084015
      axis 0.0 0.0 90.0 xyz
      dof rx ry rz
   end
   begin
      id 17
      name RightArm
      direction -1.000000 0.000000 0.000000
      length 10.259319
      axis 0.0 0.0 90.0 xyz
      dof rx ry rz
   end
   begin
      id 18
      name RightForeArm
      direction -1.000000 0.000000 0.000000
      length 9.896984
      axis 0.0 0.0 90.0 xyz
      dof ry rz rx
   end
   begin
      id 19
      name RightHand
      direction 0.000000 0.000000 0.000000
      length 0.000000
      axis 0.0 0.0 90.0 xyz
      dof rx ry rz
   end
   begin
      id 20
      name RightHand_dum1
      direction 0.000000 0.000000 0.000000
      length 0.000000
      axis 0.0 0.0 90.0 xyz
   end
   begin
      id 21
      name RightHand_dum2
      direction -1.000000 0.000000 0.000000
      length 3.937000
      axis 0.0 0.0 90.0 xyz
   end
   begin
      id 22
      name RightHandThumb1
      direction 0.000000 0.000000 1.000000
      length 3.937000
      axis 0.0 0.0 90.0 xyz
      dof rx rz ry
   end
   begin
      id 23
      name LeftUpLeg
      direction 0.000000 -1.000000 0.000000
      length 19.114733
      axis 0.0 0.0 0.0 xyz
      dof rx ry rz
   end
   begin
      id 24
      name LeftLeg
      direction 0.000000 -1.000000 0.000000
      length 16.045604
      axis 0.0 0.0 0.0 xyz
      dof rx ry rz
   end
   begin
      id 25
      name LeftFoot
      direction 0.000000 -0.258819 0.965926
      length 5.543155
      axis 15.0 0.0 0.0 xyz
      dof rx ry rz
   end
   begin
      id 26
      name LeftToeBase
      direction 0.000000 0.000000 1.000000
      length 2.952750
      axis 0.0 0.0 0.0 xyz
      dof rx ry rz
   end
   begin
      id 27
      name RightUpLeg
      direction 0.000000 -1.000000 0.000000
      length 19.114733
      axis 0.0 0.0 0.0 xyz
      dof rx ry rz
   end
   begin
      id 28
      name RightLeg
      direction 0.000000 -1.000000 0.000000
      length 16.045604
      axis 0.0 0.0 0.0 xyz
      dof rx ry rz
   end
   begin
      id 29
      name RightFoot
      direction 0.000000 -0.258819 0.965926
      length 5.543155
      axis 15.0 0.0 0.0 xyz
      dof rx ry rz
   end
   begin
      id 30
      name RightToeBase
      direction 0.000000 0.000000 1.000000
      length 2.952750
      axis 0.0 0.0 0.0 xyz
      dof rx ry rz
   end
:hierarchy
   begin
      root Spine_dum LeftUpLeg_dum RightUpLeg_dum
      Spine_dum Spine
      LeftUpLeg_dum LeftUpLeg
      RightUpLeg_dum RightUpLeg
      Spine Spine_dum1 Spine_dum2 Spine_dum3
      Spine_dum1 Head
      Spine_dum2 LeftShoulder
      Spine_dum3 RightShoulder
      LeftShoulder LeftArm
      LeftArm LeftForeArm
      LeftForeArm LeftHand
      LeftHand LeftHand_dum1 LeftHand_dum2
      LeftHand_dum1 LeftHandThumb1
      RightShoulder RightArm
      RightArm RightForeArm
      RightForeArm RightHand
      RightHand RightHand_dum1 RightHand_dum2
      RightHand_dum1 RightHandThumb1
      LeftUpLeg LeftLeg
      LeftLeg LeftFoot
      LeftFoot LeftToeBase
      RightUpLeg RightLeg
      RightLeg RightFoot
      RightFoot RightToeBase
   end

# File created by Blade
# Date/Time:  Tue Jan 27 17:27:32 2015
# Frame Rate: 120.000 fps
#------------------------------------------------------
:FULLY-SPECIFIED
:DEGREES
810
root 3.662671 37.446889 0.046622 5.701545 38.930739 -9.087714
Spine -1.818819 4.086171 7.430808
Head 6.963505 -11.699033 5.223872
LeftShoulder -3.537465 -9.206719 7.620027
LeftArm 2.761971 -14.232924 -57.410561
LeftForeArm 6.740508 0.000000 105.789793
LeftHand -14.589895 -0.000000 37.053743
LeftHandThumb1 -26.253704 0.000000 33.147579
RightShoulder -7.940918 -20.639336 0.713050
RightArm 14.732492 -22.568440 59.219673
RightForeArm 187.556673 -0.000000 26.862052
RightHand 0.478518 -0.000000 1.351268
RightHandThumb1 -24.326973 -0.000000 -32.862282
LeftUpLeg -15.093236 -9.776737 7.568068
LeftLeg 8.978518 -0.000000 -0.000000
LeftFoot -7.037607 -21.337942 -13.782431
LeftToeBase 16.335341 -0.000000 -0.000000
RightUpLeg -41.377006 12.476228 -4.290980
RightLeg 120.979401 -0.000000 -0.000000
RightFoot -0.869571 4.968050 0.239873
RightToeBase 1.711843 -0.000000 -0.000000
811
root 3.664510 37.433630 0.033916 5.673343 38.772512 -8.905143
Spine -1.541556 4.127258 7.286872
Head 6.929966 -11.632979 5.178976
LeftShoulder -3.551004 -9.216875 7.662809
LeftArm 2.710703 -14.320873 -57.286099
LeftForeArm 6.631750 -0.000000 105.815802
LeftHand -14.550218 -0.000000 37.132409
LeftHandThumb1 -26.253704 0.000000 33.147579
RightShoulder -7.896800 -20.607120 0.686796
RightArm 14.804302 -22.565583 59.242812
RightForeArm 187.566487 -0.000000 26.881668
RightHand 0.482945 0.000000 1.270008
RightHandThumb1 -24.326973 -0.000000 -32.862282
LeftUpLeg -14.988694 -9.841363 7.392754
LeftLeg 9.106437 -0.000000 -0.000000
LeftFoot -7.198298 -21.132555 -13.651101
LeftToeBase 16.160285 -0.000000 -0.000000
RightUpLeg -41.415155 12.593642 -4.397899
RightLeg 119.267298 -0.000000 -0.000000
RightFoot -1.220544 4.496166 0.329005
RightToeBase 1.686040 -0.000000 -0.000000
812
root 3.668381 37.419709 0.019757 5.656593 38.618713 -8.701142
Spine -1.283589 4.153554 7.134984
Head 6.945535 -11.532022 5.096627
LeftShoulder -3.549803 -9.208440 7.678365
LeftArm 2.667701 -14.478582 -57.173778
LeftForeArm 6.540454 0.000000 105.830982
LeftHand -14.525950 -0.000000 37.126365
LeftHandThumb1 -26.253704 0.000000 33.147579
RightShoulder -7.841035 -20.557614 0.638481
RightArm 14.835230 -22.567302 59.307615
RightForeArm 187.603400 -0.000000 26.896777
RightHand 0.454505 -0.000000 1.265299
RightHandThumb1 -24.326973 -0.000000 -32.862282
LeftUpLeg -14.881305 -9.906409 7.189670
LeftLeg 9.236998 -0.000000 -0.000000
LeftFoot -7.393572 -20.925852 -13.194894
LeftToeBase 15.580049 -0.000000 -0.000000
RightUpLeg -41.454552 12.680103 -4.514396
RightLeg 117.481063 -0.000000 -0.000000
RightFoot -1.621140 4.092874 0.506829
RightToeBase 1.965967 -0.000000 -0.000000
813
root 3.675732 37.407041 0.010094 5.553606 38.463648 -8.527708
Spine -0.943803 4.167240 7.030752
Head 6.942637 -11.418351 4.978234
LeftShoulder -3.543350 -9.248999 7.660887
LeftArm 2.591945 -14.647149 -57.049690
LeftForeArm 6.476966 0.000000 105.848975
LeftHand -14.552802 -0.000000 37.114460
LeftHandThumb1 -26.253704 0.000000 33.147579
RightShoulder -7.797930 -20.462560 0.591699
RightArm 14.840608 -22.582224 59.359734
RightForeArm 187.600352 -0.000000 26.920687
RightHand 0.372176 -0.000000 1.269436
RightHandThumb1 -24.326973 -0.000000 -32.862282
LeftUpLeg -14.686833 -9.961081 6.989094
LeftLeg 9.322315 -0.000000 -0.000000
LeftFoot -7.543716 -20.698315 -12.907532
LeftToeBase 15.353982 -0.000000 -0.000000
RightUpLeg -41.395399 12.737760 -4.557139
RightLeg 115.596070 -0.000000 -0.000000
RightFoot -2.030308 3.652850 0.643977
RightToeBase 1.971407 -0.000000 -0.000000
814
root 3.688623 37.395156 -0.002517 5.472812 38.306032 -8.296121
Spine -0.599801 4.160554 6.887128
Head 6.954343 -11.296500 4.859460
LeftShoulder -3.569736 -9.262214 7.626472
LeftArm 2.567628 -14.821995 -56.936368
LeftForeArm 6.479229 -0.000000 105.833354
LeftHand -14.596379 0.000000 37.097595
LeftHandThumb1 -26.253704 0.000000 33.147579
RightShoulder -7.737273 -20.394035 0.553078
RightArm 14.847471 -22.567293 59.390878
RightForeArm 187.566966 -0.000000 26.975856
RightHand 0.466767 0.000000 1.361509
RightHandThumb1 -24.326973 -0.000000 -32.862282
LeftUpLeg -14.365448 -10.607657 6.840030
LeftLeg 9.136682 -0.000000 -0.000000
LeftFoot -7.703418 -19.947624 -13.050268
LeftToeBase 15.545932 -0.000000 -0.000000
RightUpLeg -41.317475 12.768719 -4.657205
RightLeg 113.633050 -0.000000 -0.000000
RightFoot -2.552621 3.348927 0.938691
RightToeBase 2.112818 -0.000000 -0.000000
815
root 3.700211 37.384626 -0.015822 5.427801 38.140224 -8.106246
Spine -0.355091 4.155022 6.787491
Head 7.034065 -11.140959 4.699152
LeftShoulder -3.605880 -9.261989 7.588242
LeftArm 2.508888 -14.987866 -56.829860
LeftForeArm 6.423009 0.000000 105.814032
LeftHand -14.616555 -0.000000 37.105983
LeftHandThumb1 -26.253704 0.000000 33.147579
RightShoulder -7.697379 -20.393190 0.517597
RightArm 14.895481 -22.563349 59.387141
RightForeArm 187.598416 -0.000000 27.037841
RightHand 0.432599 -0.000000 1.409783
RightHandThumb1 -24.326973 -0.000000 -32.862282
LeftUpLeg -14.159621 -10.951179 6.678802
LeftLeg 9.089388 -0.000000 -0.000000
LeftFoot -7.850595 -19.423572 -12.920360
LeftToeBase 15.248875 -0.000000 -0.000000
RightUpLeg -41.287333 12.753639 -4.714312
RightLeg 111.582736 -0.000000 -0.000000
RightFoot -3.206801 3.072690 1.295125
RightToeBase 2.223430 -0.000000 -0.000000
816
root 3.714080 37.373910 -0.026792 5.334294 37.980047 -7.947784
Spine -0.085313 4.146422 6.738073
Head 7.121356 -10.977598 4.502265
LeftShoulder -3.623833 -9.308513 7.472749
LeftArm 2.462843 -15.158119 -56.621643
LeftForeArm 6.336551 0.000000 105.788369
LeftHand -14.789506 -0.000000 37.234440
LeftHandThumb1 -26.253704 0.000000 33.147579
RightShoulder -7.673158 -20.359816 0.463183
RightArm 14.906272 -22.574873 59.397277
RightForeArm 187.725783 0.000000 27.087026
RightHand 0.462808 -0.000000 1.558146
RightHandThumb1 -24.326973 -0.000000 -32.862282
LeftUpLeg -13.971943 -11.038825 6.483147
LeftLeg 9.179275 -0.000000 -0.000000
LeftFoot -8.033880 -19.163490 -12.443716
LeftToeBase 14.607939 -0.000000 -0.000000
RightUpLeg -41.201823 12.717303 -4.725441
RightLeg 109.427935 -0.000000 -0.000000
RightFoot -4.013867 2.831191 1.436805
RightToeBase 1.713055 -0.000000 -0.000000
817
root 3.727533 37.365081 -0.038735 5.296681 37.834369 -7.790262
Spine 0.093110 4.148820 6.687069
Head 7.241922 -10.867212 4.307991
LeftShoulder -3.621255 -9.353790 7.399918
LeftArm 2.355633 -15.332163 -56.512089
LeftForeArm 6.271930 -0.000000 105.751849
LeftHand -14.855104 -0.000000 37.278786
LeftHandThumb1 -26.253704 0.000000 33.147579
RightShoulder -7.660999 -20.304041 0.394736
RightArm 14.866775 -22.350074 59.571631
RightForeArm 187.450343 -0.000000 27.007451
RightHand 0.376706 -0.000000 1.441279
RightHandThumb1 -24.326973 -0.000000 -32.862282
LeftUpLeg -13.834031 -11.214247 6.325705
LeftLeg 9.217772 -0.000000 -0.000000
LeftFoot -8.189629 -18.816935 -12.531426
LeftToeBase 14.923215 -0.000000 -0.000000
RightUpLeg -41.157375 12.641128 -4.727443
RightLeg 107.195348 -0.000000 -0.000000
RightFoot -4.963231 2.735495 1.589663
RightToeBase 1.479755 -0.000000 -0.000000
818
root 3.738679 37.356082 -0.045357 5.176121 37.714372 -7.709539
Spine 0.302488 4.109485 6.718663
Head 7.363214 -10.727266 4.103453
LeftShoulder -3.662191 -9.383181 7.335142
LeftArm 2.265225 -15.470976 -56.430648
LeftForeArm 6.226500 0.000000 105.687440
LeftHand -14.844684 -0.000000 37.297422
LeftHandThumb1 -26.253704 0.000000 33.147579
RightShoulder -7.673627 -20.274648 0.334506
RightArm 14.869583 -22.341047 59.597192
RightForeArm 187.567698 -0.000000 26.996000
RightHand 0.257052 0.000000 1.466869
RightHandThumb1 -24.326973 -0.000000 -32.862282
LeftUpLeg -13.730658 -11.031750 6.161392
LeftLeg 9.443701 -0.000000 -0.000000
LeftFoot -8.384280 -18.820911 -12.213136
LeftToeBase 14.873206 -0.000000 -0.000000
RightUpLeg -41.045736 12.526800 -4.616207
RightLeg 104.892748 -0.000000 -0.000000
RightFoot -5.933408 2.555086 1.356280
RightToeBase 1.280232 -0.000000 -0.000000
